<svg viewBox="0 0 100 100" xmlns="http://www.w3.org/2000/svg" class="ed-loader">
     <defs>
          <style>
               .loader-group {
                    animation: ed-loader 2s infinite;
                    transform-origin: 50% 50%;
               }

               @keyframes ed-loader {
                    to {
                         transform: rotate(2turn);
                    }
               }

               .loader-1 {
                    animation: loader-1 2s infinite;
               }

               @keyframes loader-1 {
                    0% {
                         opacity: 0;
                    }

                    25% {
                         opacity: 1;
                    }
               }

               .loader-2 {
                    animation: loader-2 2s infinite;
               }

               @keyframes loader-2 {

                    0%,
                    25% {
                         opacity: 0;
                    }

                    50% {
                         opacity: 1;
                    }
               }

               .loader-3 {
                    animation: loader-3 2s infinite;
               }

               @keyframes loader-3 {

                    0%,
                    50% {
                         opacity: 0;
                    }

                    75% {
                         opacity: 1;
                    }
               }
          </style>
     </defs>
     <title>EDTeam Logo</title>
     <g class="loader-group">
          <path class="loader-1"
               d="M75,93.29A49.9,49.9,0,0,0,87.74,82.8a15,15,0,0,1-20.21-15A25,25,0,0,1,28.35,62.5,12.5,12.5,0,0,0,6.7,75,50,50,0,0,0,75,93.29Z"
               fill="#00caff" />
          <path class="loader-2"
               d="M93.31,25A49.87,49.87,0,0,0,59.57.95a15,15,0,0,1-2.89,25,25,25,0,0,1,15,36.58h0A12.5,12.5,0,0,0,93.31,75c.14-.25.26-.5.38-.75A49.92,49.92,0,0,0,93.31,25Z"
               fill="#007adb" />
          <path class="loader-3"
               d="M62.5,12.5A12.5,12.5,0,0,0,50,0c-.25,0-.49,0-.74,0A50,50,0,0,0,2.73,66.28a15,15,0,0,1,23.07-10A25,25,0,0,1,50,25h0A12.5,12.5,0,0,0,62.5,12.5Z"
               fill="#ee3f36" />
     </g>
</svg>