<?xml version="1.0" encoding="iso-8859-1"?>
<!-- Generator: Adobe Illustrator 19.0.0, SVG Export Plug-In . SVG Version: 6.00 Build 0)  -->
<svg version="1.1" id="Capa_1" xmlns="http://www.w3.org/2000/svg" xmlns:xlink="http://www.w3.org/1999/xlink" x="0px" y="0px"
	 viewBox="0 0 512 512" style="enable-background:new 0 0 512 512;" xml:space="preserve">
<path style="fill:#FD4E26;" d="M450.121,22.555l-28.444,38.326l-29.942,30.94l-29.942-30.94l-28.444-38.326
	c-4.791-9.88,2.395-21.557,13.474-21.557h89.825C447.726,0.998,454.911,12.675,450.121,22.555z"/>
<path style="fill:#FD3018;" d="M450.121,22.555l-28.444,38.326l-29.942,30.94V0.998h44.912
	C447.726,0.998,454.911,12.675,450.121,22.555z"/>
<rect x="361.793" y="60.881" style="fill:#5C697C;" width="59.883" height="121.762"/>
<rect x="391.735" y="60.881" style="fill:#4B5868;" width="29.942" height="121.762"/>
<path style="fill:#8B432D;" d="M466.589,332.351h-240.53c-8.275,0-14.971-6.696-14.971-14.971V167.673
	c0-8.275,6.696-14.971,14.971-14.971h180.647c41.272,0,74.854,33.581,74.854,74.854v89.825
	C481.559,325.655,474.864,332.351,466.589,332.351z"/>
<rect x="30.441" y="30.94" style="fill:#5C697C;" width="210.589" height="301.411"/>
<rect x="135.236" y="30.94" style="fill:#4B5868;" width="105.793" height="301.411"/>
<path style="fill:#FD4E26;" d="M511.501,347.322v89.825c0,8.383-6.586,14.971-14.971,14.971H45.411
	c-24.852,0-44.912-20.062-44.912-44.912v-59.883c0-24.852,20.06-44.912,44.912-44.912h421.177
	C491.441,302.409,511.501,322.469,511.501,347.322z"/>
<path style="fill:#E61E14;" d="M511.501,347.322v89.825c0,8.383-6.586,14.971-14.971,14.971H135.236V302.409h331.353
	C491.441,302.409,511.501,322.469,511.501,347.322z"/>
<path style="fill:#5C697C;" d="M105.294,362.292c-41.319,0-74.854,33.535-74.854,74.854S63.975,512,105.294,512
	s74.854-33.535,74.854-74.854S146.614,362.292,105.294,362.292z"/>
<path style="fill:#4B5868;" d="M180.148,437.146c0,41.319-33.535,74.854-74.854,74.854V362.292
	C146.614,362.292,180.148,395.827,180.148,437.146z"/>
<path style="fill:#D9E3ED;" d="M105.294,392.234c-24.852,0-44.912,20.06-44.912,44.912c0,24.85,20.06,44.912,44.912,44.912
	s44.912-20.062,44.912-44.912C150.207,412.294,130.147,392.234,105.294,392.234z"/>
<path style="fill:#B8C7D5;" d="M150.207,437.146c0,24.85-20.06,44.912-44.912,44.912v-89.825
	C130.147,392.234,150.207,412.294,150.207,437.146z"/>
<path style="fill:#5C697C;" d="M256,362.292c-41.319,0-75.852,33.535-75.852,74.854S214.681,512,256,512
	s75.852-33.535,75.852-74.854S297.319,362.292,256,362.292z"/>
<path style="fill:#4B5868;" d="M331.852,437.146C331.852,478.465,297.319,512,256,512V362.292
	C297.319,362.292,331.852,395.827,331.852,437.146z"/>
<path style="fill:#D9E3ED;" d="M256,392.234c-24.852,0-44.912,20.06-44.912,44.912c0,24.85,20.06,44.912,44.912,44.912
	s44.912-20.062,44.912-44.912C300.912,412.294,280.852,392.234,256,392.234z"/>
<path style="fill:#B8C7D5;" d="M300.912,437.146c0,24.85-20.06,44.912-44.912,44.912v-89.825
	C280.852,392.234,300.912,412.294,300.912,437.146z"/>
<path style="fill:#D9E3ED;" d="M135.236,122.76c-24.852,0-44.912,20.06-44.912,44.912v29.942c0,8.383,6.586,14.971,14.971,14.971
	h59.883c8.385,0,14.971-6.588,14.971-14.971v-29.942C180.148,142.82,160.088,122.76,135.236,122.76z"/>
<g>
	<path style="fill:#E5741A;" d="M346.823,272.468c-8.275,0-14.971-6.696-14.971-14.971v-29.942c0-8.275,6.696-14.971,14.971-14.971
		c8.275,0,14.971,6.696,14.971,14.971v29.942C361.793,265.772,355.097,272.468,346.823,272.468z"/>
	<path style="fill:#E5741A;" d="M406.706,272.468c-8.275,0-14.971-6.696-14.971-14.971v-29.942c0-8.275,6.696-14.971,14.971-14.971
		s14.971,6.696,14.971,14.971v29.942C421.676,265.772,414.98,272.468,406.706,272.468z"/>
	<path style="fill:#E5741A;" d="M285.942,272.468c-8.275,0-14.971-6.696-14.971-14.971v-29.942c0-8.275,6.696-14.971,14.971-14.971
		c8.275,0,14.971,6.696,14.971,14.971v29.942C300.912,265.772,294.216,272.468,285.942,272.468z"/>
</g>
<path style="fill:#FD4E26;" d="M270.971,30.94c0,16.468-13.474,29.942-29.942,29.942H30.441c-16.468,0-29.942-13.474-29.942-29.942
	S28.943,0,45.411,0l195.618,0.998C257.497,0.998,270.971,14.472,270.971,30.94z"/>
<path style="fill:#B8C7D5;" d="M180.148,167.673v29.942c0,8.383-6.586,14.971-14.971,14.971h-29.942V122.76
	C160.088,122.76,180.148,142.82,180.148,167.673z"/>
<path style="fill:#E61E14;" d="M270.971,30.94c0,16.468-13.474,29.942-29.942,29.942H135.236V0.998h105.793
	C257.497,0.998,270.971,14.472,270.971,30.94z"/>
<path style="fill:#5C697C;" d="M406.706,362.292c-41.319,0-74.854,33.535-74.854,74.854S365.386,512,406.706,512
	s74.854-33.535,74.854-74.854S448.025,362.292,406.706,362.292z"/>
<path style="fill:#4B5868;" d="M481.559,437.146c0,41.319-33.534,74.854-74.854,74.854V362.292
	C448.025,362.292,481.559,395.827,481.559,437.146z"/>
<path style="fill:#D9E3ED;" d="M406.706,392.234c-24.852,0-44.912,20.06-44.912,44.912c0,24.85,20.06,44.912,44.912,44.912
	c24.852,0,44.912-20.062,44.912-44.912C451.618,412.294,431.558,392.234,406.706,392.234z"/>
<path style="fill:#B8C7D5;" d="M451.618,437.146c0,24.85-20.06,44.912-44.912,44.912v-89.825
	C431.558,392.234,451.618,412.294,451.618,437.146z"/>
<path style="fill:#8B8892;" d="M391.735,437.146c0,8.383-6.586,14.971-14.971,14.971h-90.823c-8.385,0-14.971-6.588-14.971-14.971
	c0-8.385,6.586-14.971,14.971-14.971h90.823C385.149,422.175,391.735,428.762,391.735,437.146z"/>
<path style="fill:#7A869A;" d="M391.735,437.146c0,8.383-6.586,14.971-14.971,14.971h-44.912v-29.942h44.912
	C385.149,422.175,391.735,428.762,391.735,437.146z"/>
<path style="fill:#8B8892;" d="M241.029,437.146c0,8.383-6.586,14.971-14.971,14.971h-90.823c-8.385,0-14.971-6.588-14.971-14.971
	c0-8.385,6.586-14.971,14.971-14.971h90.823C234.443,422.175,241.029,428.762,241.029,437.146z"/>
<path style="fill:#7A869A;" d="M241.029,437.146c0,8.383-6.586,14.971-14.971,14.971h-45.91v-29.942h45.91
	C234.443,422.175,241.029,428.762,241.029,437.146z"/>
<g>
</g>
<g>
</g>
<g>
</g>
<g>
</g>
<g>
</g>
<g>
</g>
<g>
</g>
<g>
</g>
<g>
</g>
<g>
</g>
<g>
</g>
<g>
</g>
<g>
</g>
<g>
</g>
<g>
</g>
</svg>
