<svg version="1.1" xmlns="http://www.w3.org/2000/svg" xmlns:xlink="http://www.w3.org/1999/xlink" viewBox="0 0 72 24"
  enable-background="new 0 0 72 24" width="24" height="24" xml:space="preserve">

  <g id="home">
    <path d="M0 0h24v24h-24z" fill="none" />
    <path d="M10 20v-6h4v6h5v-8h3l-10-9-10 9h3v8z" />
  </g>

  <g id="ok">
    <path d="M24 0h24v24h-24z" fill="none" />
    <path d="M33 16.17l-4.17-4.17-1.42 1.41 5.59 5.59 12-12-1.41-1.41z" />
  </g>

  <g id="mail">
    <path d="M48 0h24v24h-24z" fill="none" />
    <path
      d="M68 4h-16c-1.1 0-1.99.9-1.99 2l-.01 12c0 1.1.9 2 2 2h16c1.1 0 2-.9 2-2v-12c0-1.1-.9-2-2-2zm0 4l-8 5-8-5v-2l8 5 8-5v2z" />
  </g>
</svg>