<?xml version="1.0" encoding="UTF-8"?>
<!DOCTYPE svg PUBLIC "-//W3C//DTD SVG 1.1//EN" "http://www.w3.org/Graphics/SVG/1.1/DTD/svg11.dtd">
<svg version="1.1" xmlns="http://www.w3.org/2000/svg" xmlns:xlink="http://www.w3.org/1999/xlink" viewBox="0 0 24 24" enable-background="new 0 0 24 24" xml:space="preserve">

<style type="text/css">

 <![CDATA[	
	svg > svg:not(:target) {
	display: none;
	}
	]]> 
</style>
  
  <svg id="home" viewBox="0 0 24 24" xmlns="http://www.w3.org/2000/svg" xmlns:xlink="http://www.w3.org/1999/xlink">
    <path d="M0 0h24v24h-24z" fill="none"/>
    <path d="M10 20v-6h4v6h5v-8h3l-10-9-10 9h3v8z"/>
  </svg>

  <svg id="ok" viewBox="0 0 24 24" xmlns="http://www.w3.org/2000/svg" xmlns:xlink="http://www.w3.org/1999/xlink">
    <path d="M0 0h24v24h-24z" fill="none"/>
    <path d="M9 16.17l-4.17-4.17-1.42 1.41 5.59 5.59 12-12-1.41-1.41z"/>
  </svg>

  <svg id="mail" viewBox="0 0 24 24" xmlns="http://www.w3.org/2000/svg" xmlns:xlink="http://www.w3.org/1999/xlink">
    <path d="M0 0h24v24h-24z" fill="none"/>
    <path d="M20 4h-16c-1.1 0-1.99.9-1.99 2l-.01 12c0 1.1.9 2 2 2h16c1.1 0 2-.9 2-2v-12c0-1.1-.9-2-2-2zm0 4l-8 5-8-5v-2l8 5 8-5v2z"/>
  </svg>
</svg>